<svg width="91" height="44" viewBox="0 0 91 44" fill="none" xmlns="http://www.w3.org/2000/svg">
<path d="M17.7438 29.9911C17.7438 30.783 17.6914 31.4585 17.5866 32.0175C17.4934 32.5765 17.3595 33.0307 17.1848 33.38C17.0101 33.7294 16.7946 33.9856 16.5384 34.1487C16.2939 34.3117 16.026 34.3932 15.7349 34.3932C15.5136 34.3932 15.269 34.3175 15.0012 34.1661C14.7333 34.0148 14.4771 33.8284 14.2325 33.6071C13.9996 33.3859 13.8016 33.1588 13.6386 32.9259C13.4872 32.6929 13.4115 32.4891 13.4115 32.3144C13.4115 32.198 13.4231 32.1223 13.4464 32.0873C13.4814 32.0641 13.5221 32.0524 13.5687 32.0524C13.6269 32.0641 13.691 32.0815 13.7609 32.1048C13.8424 32.1281 13.9297 32.1398 14.0229 32.1398C14.349 32.1398 14.5819 31.9359 14.7217 31.5283C14.8731 31.1091 14.9488 30.4453 14.9488 29.5369V9.7795C13.8424 9.87267 12.7768 10.0707 11.7519 10.3734C10.7271 10.6646 9.82453 11.1071 9.04425 11.7011C8.26398 12.295 7.64092 13.0695 7.17508 14.0245C6.70924 14.9678 6.47632 16.1324 6.47632 17.5182C6.47632 18.1355 6.53455 18.6945 6.65101 19.1953C6.77911 19.6844 6.94216 20.1269 7.14014 20.5229C7.33812 20.9189 7.55357 21.2682 7.78649 21.571C8.03106 21.8738 8.2698 22.1417 8.50272 22.3746C8.7007 22.3164 8.84045 22.3397 8.92197 22.4445C9.00349 22.5493 9.04425 22.6949 9.04425 22.8812C9.04425 23.1141 8.99185 23.3587 8.88703 23.6149C8.79387 23.8595 8.66576 24.0866 8.50272 24.2962C8.33967 24.4942 8.15334 24.663 7.94371 24.8028C7.74573 24.9309 7.54193 24.995 7.3323 24.995C7.23913 24.995 7.14596 24.9833 7.0528 24.96C6.97127 24.9367 6.88393 24.8843 6.79076 24.8028C6.53455 24.6165 6.22593 24.3137 5.86491 23.8944C5.50388 23.4635 5.16033 22.9336 4.83424 22.3047C4.50815 21.6759 4.22865 20.9596 3.99573 20.1561C3.76281 19.3408 3.64635 18.4616 3.64635 17.5182C3.64635 15.7946 3.96661 14.2748 4.60714 12.9589C5.24767 11.6429 6.13859 10.5423 7.27989 9.65722C8.4212 8.76048 9.77213 8.08502 11.3327 7.63082C12.9049 7.17663 14.6227 6.94953 16.486 6.94953C16.9169 6.94953 17.4352 6.95536 18.0408 6.967C18.658 6.967 19.2694 6.97283 19.875 6.98447C20.4806 6.99612 21.0221 7.00776 21.4996 7.01941C21.9887 7.01941 22.3207 7.01941 22.4953 7.01941C22.6467 7.01941 22.769 7.00776 22.8622 6.98447C22.967 6.94953 23.0485 6.9146 23.1068 6.87966C23.1766 6.84472 23.229 6.81561 23.264 6.79231C23.2989 6.75738 23.328 6.73991 23.3513 6.73991C23.4095 6.73991 23.462 6.78067 23.5085 6.86219C23.5668 6.93207 23.6134 7.02523 23.6483 7.14169C23.6949 7.24651 23.7298 7.36879 23.7531 7.50854C23.7764 7.64829 23.788 7.78804 23.788 7.92779C23.788 8.13742 23.7589 8.3587 23.7007 8.59161C23.6425 8.81289 23.5551 9.01669 23.4387 9.20303C23.3222 9.37772 23.1766 9.52329 23.0019 9.63975C22.8273 9.75621 22.6234 9.81444 22.3905 9.81444C22.2624 9.81444 22.0237 9.81444 21.6743 9.81444C21.3366 9.80279 20.9464 9.79115 20.5039 9.7795C20.0613 9.76786 19.5955 9.75621 19.1064 9.74457C18.6172 9.73292 18.163 9.72127 17.7438 9.70963V29.9911ZM54.6417 32.9957C53.9429 32.9957 53.3082 32.8734 52.7376 32.6289C52.1669 32.3843 51.6778 32.0233 51.2702 31.5458C50.8742 31.0567 50.5656 30.4569 50.3443 29.7465C50.1347 29.0245 50.0299 28.1918 50.0299 27.2484C50.0299 25.8742 50.2221 24.6514 50.6064 23.58C50.9907 22.4969 51.5148 21.571 52.1786 20.8024C52.8424 20.0221 53.611 19.4049 54.4845 18.9507C55.3579 18.4849 56.2838 18.1821 57.262 18.0423V9.95419C57.262 9.69798 57.2387 9.49418 57.1922 9.34278C57.1572 9.19138 57.1165 9.07492 57.0699 8.9934C57.0349 8.90023 56.9942 8.83036 56.9476 8.78377C56.9127 8.72554 56.8952 8.66731 56.8952 8.60908C56.8952 8.53921 56.9301 8.48098 57 8.43439C57.0699 8.38781 57.163 8.34705 57.2795 8.31211C57.396 8.27717 57.5182 8.25388 57.6464 8.24224C57.7861 8.21894 57.92 8.2073 58.0481 8.2073C58.6421 8.2073 59.1079 8.36452 59.4457 8.67896C59.795 8.98175 59.9697 9.3486 59.9697 9.7795V28.9953C59.9697 29.1933 59.993 29.3913 60.0396 29.5893C60.0862 29.7756 60.1561 29.9503 60.2492 30.1134C60.354 30.2648 60.4821 30.3929 60.6335 30.4977C60.7966 30.5908 60.9829 30.6374 61.1925 30.6374C61.5536 30.6374 61.8622 30.5093 62.1184 30.2531C62.3863 29.9969 62.6134 29.6766 62.7997 29.2923C62.9977 28.908 63.1549 28.4946 63.2714 28.052C63.3995 27.5978 63.5043 27.1727 63.5858 26.7768C63.6557 26.4041 63.7721 26.1363 63.9352 25.9732C64.0982 25.7985 64.2671 25.7112 64.4418 25.7112C64.5815 25.7112 64.7271 25.7578 64.8785 25.8509C65.0299 25.9325 65.1638 26.0431 65.2803 26.1828C65.4084 26.3226 65.5074 26.4798 65.5773 26.6545C65.6588 26.8292 65.6995 27.0039 65.6995 27.1786C65.6995 27.2019 65.6995 27.231 65.6995 27.2659C65.6995 27.3009 65.6879 27.3533 65.6646 27.4231C65.5132 28.0171 65.3036 28.6401 65.0357 29.2923C64.7795 29.9445 64.4418 30.5443 64.0225 31.0916C63.6149 31.639 63.1258 32.0932 62.5551 32.4542C61.9845 32.8152 61.3148 32.9957 60.5462 32.9957C59.929 32.9957 59.3874 32.8676 58.9216 32.6114C58.4557 32.3552 58.0889 32.0175 57.821 31.5982C57.4251 32.0058 56.9651 32.3377 56.441 32.5939C55.9286 32.8618 55.3288 32.9957 54.6417 32.9957ZM55.1832 30.6374C55.6491 30.6374 56.0509 30.5035 56.3886 30.2356C56.738 29.9678 57.0291 29.6359 57.262 29.2399V20.4006C56.6797 20.5054 56.1149 20.7034 55.5675 20.9946C55.0318 21.2741 54.5543 21.67 54.1351 22.1825C53.7275 22.6949 53.4014 23.347 53.1568 24.139C52.9123 24.9193 52.79 25.8684 52.79 26.9864C52.79 27.6386 52.854 28.1976 52.9821 28.6634C53.1219 29.1176 53.2966 29.4903 53.5062 29.7814C53.7275 30.0726 53.9837 30.288 54.2748 30.4278C54.566 30.5675 54.8688 30.6374 55.1832 30.6374ZM65.7352 21.4138C65.8633 21.1693 65.9856 20.8432 66.102 20.4356C66.2301 20.0163 66.3466 19.5563 66.4514 19.0555C66.5679 18.5547 66.6727 18.0307 66.7658 17.4833C66.859 16.9359 66.9405 16.4002 67.0104 15.8762C67.0803 15.3521 67.1327 14.863 67.1676 14.4088C67.2142 13.9429 67.2375 13.547 67.2375 13.2209C67.2375 12.033 67.1502 11.1654 66.9755 10.618C66.8008 10.059 66.5679 9.7795 66.2767 9.7795C66.1835 9.7795 66.102 9.82609 66.0321 9.91925C65.9623 10.0124 65.904 10.1347 65.8575 10.2861C65.8109 10.4259 65.7759 10.5831 65.7526 10.7578C65.741 10.9208 65.7352 11.0722 65.7352 11.212V21.4138ZM70.8186 26.8117C70.8885 26.4623 70.9933 26.212 71.1331 26.0606C71.2845 25.8975 71.4417 25.8102 71.6047 25.7985C71.7794 25.7752 71.9541 25.816 72.1288 25.9208C72.3035 26.014 72.4549 26.1421 72.583 26.3051C72.7111 26.4682 72.8043 26.6545 72.8625 26.8641C72.9324 27.0621 72.944 27.2601 72.8974 27.4581C72.7344 27.9356 72.5015 28.4946 72.1987 29.1351C71.8959 29.7756 71.5116 30.3812 71.0457 30.9519C70.5799 31.5225 70.0325 32.0058 69.4037 32.4018C68.7748 32.7977 68.0527 32.9957 67.2375 32.9957C66.5504 32.9957 65.9448 32.8793 65.4207 32.6464C64.8967 32.4251 64.4541 32.1106 64.0931 31.703C63.7437 31.2838 63.4759 30.7888 63.2895 30.2182C63.1148 29.6359 63.0275 28.9895 63.0275 28.2791V11.9981C63.0275 11.3342 63.109 10.7228 63.2721 10.1638C63.4467 9.59317 63.6797 9.10986 63.9708 8.7139C64.2736 8.30629 64.623 7.99185 65.0189 7.77057C65.4149 7.53766 65.8342 7.4212 66.2767 7.4212C66.8008 7.4212 67.2433 7.52019 67.6043 7.71817C67.9654 7.9045 68.2623 8.15489 68.4953 8.46933C68.7282 8.78377 68.9087 9.1448 69.0368 9.55241C69.1766 9.96002 69.2755 10.3793 69.3338 10.8102C69.392 11.2294 69.4269 11.6487 69.4386 12.0679C69.4502 12.4755 69.4561 12.8482 69.4561 13.1859C69.4561 14.0594 69.3745 14.9794 69.2115 15.946C69.0484 16.901 68.8388 17.8443 68.5826 18.776C68.338 19.7077 68.0644 20.6044 67.7616 21.4662C67.4704 22.3164 67.1851 23.0734 66.9056 23.7372C66.6377 24.401 66.3932 24.9425 66.1719 25.3618C65.9623 25.7811 65.8167 26.0256 65.7352 26.0955V28.1743C65.7352 28.8964 65.8866 29.4903 66.1894 29.9561C66.4922 30.4103 66.9755 30.6374 67.6393 30.6374C68.0469 30.6374 68.4254 30.5151 68.7748 30.2706C69.1358 30.0144 69.4502 29.6999 69.7181 29.3273C69.9976 28.9429 70.2305 28.5295 70.4168 28.087C70.6032 27.6328 70.7371 27.2077 70.8186 26.8117ZM78.4358 21.5885C78.4358 22.2523 78.3193 22.9336 78.0864 23.6324C77.8651 24.3311 77.5274 24.995 77.0732 25.6238C76.6307 26.2411 76.0775 26.8001 75.4137 27.3009C74.7615 27.79 74.0045 28.1627 73.1427 28.4189C73.2592 28.7217 73.4106 29.0128 73.5969 29.2923C73.7949 29.5602 74.0278 29.7931 74.2957 29.9911C74.5635 30.1891 74.8721 30.3463 75.2215 30.4627C75.5825 30.5792 75.996 30.6374 76.4618 30.6374C77.1606 30.6374 77.7603 30.5093 78.2611 30.2531C78.7619 29.9852 79.1811 29.6359 79.5189 29.205C79.8682 28.7741 80.1478 28.2908 80.3574 27.755C80.567 27.2193 80.7242 26.6778 80.829 26.1304C80.9106 25.7345 81.0736 25.4724 81.3182 25.3443C81.5744 25.2046 81.8306 25.1696 82.0868 25.2395C82.3547 25.3094 82.5818 25.4608 82.7681 25.6937C82.9661 25.915 83.0476 26.1828 83.0127 26.4973C82.9661 26.8583 82.8846 27.2717 82.7681 27.7376C82.6633 28.2034 82.5002 28.6751 82.279 29.1526C82.0577 29.63 81.7724 30.1017 81.423 30.5675C81.0853 31.0217 80.666 31.4293 80.1652 31.7904C79.6644 32.1514 79.0763 32.4425 78.4009 32.6638C77.7254 32.8851 76.9509 32.9957 76.0775 32.9957C75.2623 32.9957 74.4703 32.8327 73.7017 32.5066C72.9447 32.1922 72.2693 31.738 71.6753 31.144C71.093 30.5384 70.6214 29.7989 70.2603 28.9255C69.9109 28.0404 69.7363 27.0388 69.7363 25.9208C69.7363 24.7911 69.8935 23.743 70.2079 22.7764C70.5224 21.7981 70.9358 20.9538 71.4482 20.2434C71.9606 19.533 72.5429 18.9798 73.1951 18.5839C73.8473 18.1762 74.5169 17.9724 75.204 17.9724C75.7048 17.9724 76.1532 18.0598 76.5491 18.2345C76.9568 18.4092 77.3003 18.6595 77.5798 18.9856C77.8593 19.3001 78.0689 19.6786 78.2087 20.1211C78.3601 20.5637 78.4358 21.0528 78.4358 21.5885ZM72.671 25.816C72.671 25.9208 72.6769 26.0256 72.6885 26.1304C72.7002 26.2352 72.706 26.3459 72.706 26.4623C73.1485 26.2527 73.5503 25.9849 73.9113 25.6588C74.2724 25.3327 74.581 24.96 74.8372 24.5408C75.0934 24.1215 75.2914 23.6673 75.4311 23.1782C75.5709 22.6774 75.6408 22.1592 75.6408 21.6234C75.6408 21.2275 75.5709 20.9189 75.4311 20.6976C75.303 20.4763 75.1225 20.3657 74.8896 20.3657C74.5984 20.3657 74.3364 20.4647 74.1035 20.6627C73.8822 20.8606 73.6842 21.1227 73.5096 21.4488C73.3465 21.7632 73.2068 22.1242 73.0903 22.5318C72.9855 22.9278 72.8981 23.3296 72.8283 23.7372C72.7584 24.1448 72.7118 24.5349 72.6885 24.9076C72.6652 25.2686 72.6594 25.5714 72.671 25.816Z" fill="#7F56D9"/>
<path d="M21.0877 33.3005C21.1116 33.4441 21.166 33.5809 21.2473 33.7018C21.3286 33.8226 21.4349 33.9245 21.5589 34.0008C21.683 34.0771 21.8219 34.1258 21.9664 34.1439C22.1109 34.1619 22.2576 34.1487 22.3966 34.1052L29.527 31.8774C29.7344 31.8127 29.9156 31.6834 30.0442 31.5084C30.1729 31.3334 30.2422 31.1219 30.2421 30.9047V22.6211C30.701 22.9653 31.2628 23.1445 31.8362 23.1296C32.4097 23.1147 32.9613 22.9066 33.4018 22.539C33.8422 22.1714 34.1456 21.6659 34.2629 21.1044C34.3801 20.5428 34.3043 19.9581 34.0478 19.445C33.7912 18.9319 33.369 18.5204 32.8494 18.2773C32.3298 18.0342 31.7433 17.9736 31.185 18.1054C30.6267 18.2372 30.1292 18.5537 29.7732 19.0035C29.4172 19.4533 29.2235 20.0102 29.2235 20.5839V27.8488L22.093 30.0775V24.6584C22.552 25.0026 23.1137 25.1818 23.6872 25.1669C24.2606 25.1519 24.8123 24.9438 25.2527 24.5763C25.6931 24.2087 25.9966 23.7032 26.1138 23.1416C26.2311 22.5801 26.1553 21.9954 25.8987 21.4823C25.6422 20.9692 25.2199 20.5577 24.7003 20.3146C24.1807 20.0714 23.5942 20.0109 23.0359 20.1427C22.4776 20.2745 21.9801 20.5909 21.6241 21.0408C21.2681 21.4906 21.0744 22.0475 21.0744 22.6211V33.1334C21.0744 33.1905 21.0795 33.2455 21.0877 33.3005Z" fill="#7F56D9"/>
<path d="M35.9947 33.3005C36.0186 33.4441 36.0731 33.5809 36.1544 33.7018C36.2357 33.8226 36.3419 33.9245 36.466 34.0008C36.59 34.0771 36.729 34.1258 36.8735 34.1439C37.018 34.1619 37.1647 34.1487 37.3036 34.1052L44.4341 31.8774C44.6414 31.8127 44.8226 31.6834 44.9513 31.5084C45.0799 31.3334 45.1493 31.1219 45.1492 30.9047V22.6211C45.6081 22.9653 46.1698 23.1445 46.7433 23.1296C47.3167 23.1147 47.8684 22.9066 48.3088 22.539C48.7493 22.1714 49.0527 21.6659 49.1699 21.1044C49.2872 20.5428 49.2114 19.9581 48.9548 19.445C48.6983 18.9319 48.276 18.5204 47.7564 18.2773C47.2368 18.0342 46.6503 17.9736 46.092 18.1054C45.5337 18.2372 45.0362 18.5537 44.6802 19.0035C44.3242 19.4533 44.1305 20.0102 44.1305 20.5839V27.8488L37.0001 30.0775V24.6584C37.459 25.0026 38.0207 25.1818 38.5942 25.1669C39.1677 25.1519 39.7193 24.9438 40.1598 24.5763C40.6002 24.2087 40.9036 23.7032 41.0209 23.1416C41.1381 22.5801 41.0623 21.9954 40.8058 21.4823C40.5492 20.9692 40.1269 20.5577 39.6073 20.3146C39.0877 20.0714 38.5013 20.0109 37.943 20.1427C37.3846 20.2745 36.8872 20.5909 36.5312 21.0408C36.1751 21.4906 35.9815 22.0475 35.9815 22.6211V33.1334C35.9815 33.1905 35.9865 33.2455 35.9947 33.3005Z" fill="#7F56D9"/>
</svg>
